<svg xmlns="http://www.w3.org/2000/svg" viewBox="0 0 375 69.87"><defs><style>.cls-1{fill:#e89e62;}.cls-2{fill:#ffd664;}.cls-3{fill:#caefca;}.cls-4{fill:#83c6ab;}</style></defs><title>Artboard 2</title><g id="Layer_10" data-name="Layer 10"><path class="cls-1" d="M27.88,3.86A26.44,26.44,0,0,1,45.17,11.2l.76.73-8.39,8.32-.79-.73a14.49,14.49,0,0,0-10.22-4,14.81,14.81,0,0,0-10.18,3.65,11.26,11.26,0,0,0,0,17.62,15,15,0,0,0,10.19,3.63,14.37,14.37,0,0,0,10.25-4l.78-.73L46,44.08l-.74.73A25.18,25.18,0,0,1,37,50.21,28.15,28.15,0,0,1,26.5,52.16a28,28,0,0,1-19.08-7A22.92,22.92,0,0,1,0,28,23.06,23.06,0,0,1,7.42,10.85,27.72,27.72,0,0,1,26.5,3.71h1.42Z"/><path class="cls-1" d="M70.07,3.71c7.32,0,12.77,2.4,18,7.14A23,23,0,0,1,95.51,28a22.82,22.82,0,0,1-7.45,17.12,25.2,25.2,0,0,1-18,7,25.28,25.28,0,0,1-18-7A22.92,22.92,0,0,1,44.67,28a23.09,23.09,0,0,1,7.41-17.14C57.31,6.11,62.76,3.71,70.07,3.71Zm0,11.76a12.43,12.43,0,0,0-9.19,3.65,11.31,11.31,0,0,0-4.2,8.82,11.18,11.18,0,0,0,4.19,8.8,12.54,12.54,0,0,0,9.2,3.63c3.93,0,6.34-1.19,9.18-3.63a11.3,11.3,0,0,0,0-17.61C76.43,16.67,74,15.47,70.07,15.47Z"/><path class="cls-1" d="M109.77,36.73c0,1.76,2.1,3.48,4.39,3.78h.62c2.44,0,5-1.81,5-3.65,0-3.16-5.16-3.65-9.39-4.9-6.63-2-12.2-6.76-12.2-13.47,0-8.14,7-14.72,16.59-14.72,8.73,0,15.36,5.82,16.41,13.39l.13.93-12.26,2.46c0-2.93-1.2-5.05-4.21-5.05-2.31,0-4.27,1.64-4.27,3.65,0,3.15,4.88,4.16,8.91,5.19,6.81,1.71,12.6,6.34,12.6,13.2,0,8.2-7.77,14.74-17.28,14.74-8.73,0-16-5.74-17.14-13.38L97.57,38l12.2-2.49Z"/><path class="cls-1" d="M138.67,4l23.08,30.34L184.79,4h2.39V51.83H175.51V34.21L161.75,51.79,148,34.21V51.83H136.28V4Z"/><path class="cls-1" d="M216.73,3.71c7.31,0,12.76,2.4,18,7.14A23,23,0,0,1,242.16,28a22.82,22.82,0,0,1-7.45,17.12,26.47,26.47,0,0,1-36,0A22.92,22.92,0,0,1,191.32,28a23.06,23.06,0,0,1,7.42-17.14C204,6.11,209.41,3.71,216.73,3.71Zm0,11.76a12.45,12.45,0,0,0-9.2,3.65,11.34,11.34,0,0,0-4.2,8.82,11.21,11.21,0,0,0,4.19,8.8,12.56,12.56,0,0,0,9.21,3.63c3.92,0,6.34-1.19,9.17-3.63a11.3,11.3,0,0,0,0-17.61C223.08,16.67,220.67,15.47,216.73,15.47Z"/><path class="cls-1" d="M283.08,36.42a14.62,14.62,0,0,1-4.65,10.86c-3.15,3-7.57,4.55-12.65,4.55H246.3V4.1h14.37A18,18,0,0,1,272.5,8.2,11.82,11.82,0,0,1,277,17.61a13.39,13.39,0,0,1-1.69,5.91C280,25.72,283.08,31,283.08,36.42ZM260.67,15.5h-2.73v6.6l2.45-.17c1.91-.2,3.74-1.39,3.74-3.35A3.31,3.31,0,0,0,260.67,15.5ZM271,35.75a4.25,4.25,0,0,0-1.54-3.32,6.17,6.17,0,0,0-3.74-1.51c-2.78-.13-5.08,0-7.77,0V40.4h7.84C268.57,40.4,271,38.47,271,35.75Z"/><path class="cls-1" d="M310.85,3.71c7.31,0,12.77,2.4,18,7.14A23,23,0,0,1,336.29,28a22.82,22.82,0,0,1-7.45,17.12,26.47,26.47,0,0,1-36,0A22.92,22.92,0,0,1,285.45,28a23.09,23.09,0,0,1,7.41-17.14C298.09,6.11,303.54,3.71,310.85,3.71Zm0,11.76a12.45,12.45,0,0,0-9.2,3.65,11.33,11.33,0,0,0-4.19,8.82,11.18,11.18,0,0,0,4.19,8.8,12.54,12.54,0,0,0,9.2,3.63c3.93,0,6.34-1.19,9.18-3.63a11.3,11.3,0,0,0,0-17.61C317.21,16.67,314.8,15.47,310.85,15.47Z"/><path class="cls-1" d="M334,4.1h37.25V15.68H359.11l.45,36.15H346.38l-.14-36.15H334Z"/><path class="cls-2" d="M31.59.15A26.44,26.44,0,0,1,48.88,7.49l.76.73-8.39,8.31-.79-.72a14.45,14.45,0,0,0-10.22-4A14.79,14.79,0,0,0,20.06,15.5a11.27,11.27,0,0,0,0,17.62,14.93,14.93,0,0,0,10.18,3.63,14.37,14.37,0,0,0,10.25-4l.79-.73,8.38,8.3-.74.74a25.51,25.51,0,0,1-8.19,5.4,28.11,28.11,0,0,1-10.52,2A28,28,0,0,1,11.13,41.4,22.92,22.92,0,0,1,3.71,24.28,23,23,0,0,1,11.13,7.14,27.72,27.72,0,0,1,30.21,0h1.42Z"/><path class="cls-2" d="M73.79,0c7.31,0,12.76,2.4,18,7.14a22.94,22.94,0,0,1,7.45,17.14A22.82,22.82,0,0,1,91.77,41.4a25.17,25.17,0,0,1-18,7.05,25.32,25.32,0,0,1-18-7.05,22.92,22.92,0,0,1-7.42-17.12A23,23,0,0,1,55.8,7.14C61,2.4,66.47,0,73.79,0Zm0,11.76a12.45,12.45,0,0,0-9.2,3.65,11.35,11.35,0,0,0,0,17.62,12.56,12.56,0,0,0,9.21,3.63c3.92,0,6.34-1.19,9.17-3.63a11.13,11.13,0,0,0,4.22-8.81A11.24,11.24,0,0,0,83,15.41C80.14,13,77.73,11.76,73.79,11.76Z"/><path class="cls-2" d="M113.48,33c0,1.76,2.11,3.49,4.39,3.79h.63c2.44,0,5-1.82,5-3.65,0-3.17-5.17-3.65-9.4-4.91-6.63-1.95-12.2-6.75-12.2-13.46,0-8.14,7-14.73,16.6-14.73,8.72,0,15.35,5.83,16.41,13.4l.12.92-12.26,2.47c0-2.93-1.2-5.06-4.21-5.06-2.31,0-4.26,1.65-4.26,3.65,0,3.15,4.87,4.17,8.91,5.19,6.8,1.72,12.59,6.34,12.59,13.21,0,8.2-7.77,14.74-17.27,14.74-8.74,0-16-5.74-17.15-13.38l-.14-.94,12.19-2.48Z"/><path class="cls-2" d="M142.39.27l23.07,30.34L188.5.27h2.39V48.12H179.23V30.5L165.46,48.08l-13.8-17.59V48.12H140V.27Z"/><path class="cls-2" d="M220.44,0c7.31,0,12.77,2.4,18,7.14a23,23,0,0,1,7.45,17.14,22.83,22.83,0,0,1-7.46,17.12,26.47,26.47,0,0,1-36,0A22.92,22.92,0,0,1,195,24.28a23,23,0,0,1,7.42-17.14C207.67,2.4,213.13,0,220.44,0Zm0,11.76a12.45,12.45,0,0,0-9.2,3.65,11.36,11.36,0,0,0,0,17.62,12.54,12.54,0,0,0,9.2,3.63c3.92,0,6.34-1.19,9.18-3.63a11.31,11.31,0,0,0,0-17.62C226.8,13,224.38,11.76,220.44,11.76Z"/><path class="cls-2" d="M286.79,32.71a14.64,14.64,0,0,1-4.65,10.86c-3.15,3-7.57,4.55-12.65,4.55H250V.39h14.36a18,18,0,0,1,11.83,4.09,11.82,11.82,0,0,1,4.54,9.41,13.43,13.43,0,0,1-1.69,5.92C283.75,22,286.79,27.29,286.79,32.71ZM264.38,11.79h-2.73v6.6l2.45-.17c1.92-.21,3.74-1.4,3.74-3.35A3.31,3.31,0,0,0,264.38,11.79ZM274.71,32a4.27,4.27,0,0,0-1.54-3.33,6.18,6.18,0,0,0-3.75-1.5c-2.78-.13-5.08,0-7.77,0v9.51h7.84C272.28,36.69,274.71,34.75,274.71,32Z"/><path class="cls-2" d="M314.57,0c7.31,0,12.76,2.4,18,7.14A22.94,22.94,0,0,1,340,24.28a22.82,22.82,0,0,1-7.45,17.12,26.47,26.47,0,0,1-36,0,22.92,22.92,0,0,1-7.42-17.12,23,23,0,0,1,7.42-17.14C301.8,2.4,307.25,0,314.57,0Zm0,11.76a12.45,12.45,0,0,0-9.2,3.65,11.35,11.35,0,0,0,0,17.62,12.56,12.56,0,0,0,9.21,3.63c3.92,0,6.34-1.19,9.17-3.63A11.13,11.13,0,0,0,328,24.22a11.24,11.24,0,0,0-4.22-8.81C320.92,13,318.51,11.76,314.57,11.76Z"/><path class="cls-2" d="M337.75.39H375V12H362.83l.44,36.16H350.1L350,12h-12.2Z"/><path class="cls-3" d="M139,69.72a3.78,3.78,0,0,1-3.19-1.54,4.64,4.64,0,0,1-.72-3.76,6.68,6.68,0,0,1,2.19-3.76,5.57,5.57,0,0,1,3.79-1.57l0,0a4,4,0,0,1,3.21,1.55l-1.69,1.5a2.25,2.25,0,0,0-1.91-.93,3.37,3.37,0,0,0-2.28.93,4,4,0,0,0-1.3,2.26,2.75,2.75,0,0,0,.42,2.25,2.26,2.26,0,0,0,1.92.93,3.39,3.39,0,0,0,2.28-.93l1.11,1.5A5.84,5.84,0,0,1,139,69.72Z"/><path class="cls-3" d="M152.36,60.66a4.56,4.56,0,0,1,.72,3.76,6.57,6.57,0,0,1-2.18,3.76,5.63,5.63,0,0,1-3.8,1.54,3.77,3.77,0,0,1-3.19-1.54,4.56,4.56,0,0,1-.72-3.76,6.66,6.66,0,0,1,2.18-3.76,5.61,5.61,0,0,1,3.8-1.57A3.73,3.73,0,0,1,152.36,60.66Zm-5.88,1.49a4,4,0,0,0-1.31,2.26,2.75,2.75,0,0,0,.43,2.25,2.26,2.26,0,0,0,1.92.93,3.39,3.39,0,0,0,2.27-.93,4,4,0,0,0,1.32-2.25,2.81,2.81,0,0,0-.45-2.26,2.24,2.24,0,0,0-1.91-.93A3.33,3.33,0,0,0,146.48,62.15Z"/><path class="cls-3" d="M160.45,65l1.13-5.82h2l-2.08,10.72-4.7-6-1.13,5.81h-2L155.75,59Z"/><path class="cls-3" d="M171.83,59.18l-.4,2.08H169l-1.63,8.39h-2l1.63-8.39h-2.4l.41-2.08Z"/><path class="cls-3" d="M173.21,59.18h3.19a2.83,2.83,0,0,1,2.34,1.06,2.67,2.67,0,0,1,.48,2.38l-.05.27a4.42,4.42,0,0,1-1,2,3.06,3.06,0,0,1-1.35,1l1.52,3.79h-2.39L174,65l-.9,4.63h-2Zm4,3.5a1.24,1.24,0,0,0-.19-1,1.42,1.42,0,0,0-1.12-.42h-1.1l-.56,2.89h1.4A1.78,1.78,0,0,0,177.18,62.68Z"/><path class="cls-3" d="M189.61,60.66a4.6,4.6,0,0,1,.72,3.76,6.63,6.63,0,0,1-2.18,3.76,5.63,5.63,0,0,1-3.8,1.54,3.77,3.77,0,0,1-3.19-1.54,4.56,4.56,0,0,1-.72-3.76,6.6,6.6,0,0,1,2.18-3.76,5.61,5.61,0,0,1,3.8-1.57A3.73,3.73,0,0,1,189.61,60.66Zm-5.88,1.49a4,4,0,0,0-1.32,2.26,2.75,2.75,0,0,0,.44,2.25,2.24,2.24,0,0,0,1.92.93,3.35,3.35,0,0,0,2.26-.93,3.91,3.91,0,0,0,1.32-2.25,2.77,2.77,0,0,0-.44-2.26,2.25,2.25,0,0,0-1.91-.93A3.33,3.33,0,0,0,183.73,62.15Z"/><path class="cls-3" d="M194.92,59.18l-1.64,8.38h3.92l-.41,2.09h-5.87l2-10.47Z"/><path class="cls-3" d="M202.3,66.51l1.43-7.33h3.42a2.56,2.56,0,0,1,2.21,1.07,3.12,3.12,0,0,1,.5,2.6,4.44,4.44,0,0,1-1.5,2.58,3.94,3.94,0,0,1-2.64,1.08h-1.46l-.61,3.14h-2Zm4.44-5.25h-1.46c-.2,1.05-.41,2.11-.61,3.16h1.46a2,2,0,0,0,1.78-1.58A1.25,1.25,0,0,0,206.74,61.26Z"/><path class="cls-3" d="M213.38,59l2.36,10.69h-2.11l-.36-1.59h-3.33l-1,1.59h-2.12Zm-.52,7.24L212.4,64l-1.32,2.22Z"/><path class="cls-3" d="M224.07,65l1.13-5.82h2l-2.08,10.72-4.7-6-1.13,5.81h-2L219.37,59Z"/><path class="cls-3" d="M234.93,59.15l-.41,2.1H230.6l-.41,2.11h2.94l-.41,2.1h-2.93l-.41,2.11h3.91l-.4,2.09H227l2-10.51Z"/><path class="cls-3" d="M238.23,59.18l-1.63,8.38h3.92l-.41,2.09h-5.87l2-10.47Z"/><path class="cls-4" d="M139.51,69.2a3.77,3.77,0,0,1-3.19-1.55,4.64,4.64,0,0,1-.72-3.76,6.75,6.75,0,0,1,2.18-3.76,5.6,5.6,0,0,1,3.79-1.57v0a3.94,3.94,0,0,1,3.2,1.55l-1.68,1.5a2.27,2.27,0,0,0-1.92-.93,3.37,3.37,0,0,0-2.27.93,4,4,0,0,0-1.31,2.26,2.74,2.74,0,0,0,.43,2.25,2.24,2.24,0,0,0,1.91.93,3.4,3.4,0,0,0,2.29-.93l1.11,1.5A5.85,5.85,0,0,1,139.51,69.2Z"/><path class="cls-4" d="M152.89,60.13a4.65,4.65,0,0,1,.72,3.76,6.6,6.6,0,0,1-2.18,3.76,5.66,5.66,0,0,1-3.8,1.55,3.77,3.77,0,0,1-3.19-1.55,4.56,4.56,0,0,1-.72-3.76,6.64,6.64,0,0,1,2.18-3.76,5.61,5.61,0,0,1,3.8-1.57A3.74,3.74,0,0,1,152.89,60.13ZM147,61.62a4,4,0,0,0-1.32,2.26,2.74,2.74,0,0,0,.44,2.25,2.24,2.24,0,0,0,1.92.93,3.35,3.35,0,0,0,2.26-.93,3.88,3.88,0,0,0,1.32-2.25,2.77,2.77,0,0,0-.44-2.26,2.25,2.25,0,0,0-1.91-.93A3.33,3.33,0,0,0,147,61.62Z"/><path class="cls-4" d="M161,64.44l1.13-5.82h2L162,69.34l-4.7-6-1.13,5.82h-2l2.08-10.71Z"/><path class="cls-4" d="M172.36,58.65,172,60.73h-2.39l-1.63,8.39h-2l1.63-8.39h-2.41l.41-2.08Z"/><path class="cls-4" d="M173.74,58.65h3.18a2.8,2.8,0,0,1,2.34,1.06,2.62,2.62,0,0,1,.48,2.38l-.05.27a4.26,4.26,0,0,1-1,2,3.09,3.09,0,0,1-1.36,1l1.53,3.79h-2.39l-1.9-4.63-.9,4.63h-2Zm4,3.51a1.29,1.29,0,0,0-.19-1,1.42,1.42,0,0,0-1.12-.42h-1.11l-.56,2.9h1.41A1.78,1.78,0,0,0,177.71,62.16Z"/><path class="cls-4" d="M190.14,60.13a4.65,4.65,0,0,1,.72,3.76,6.61,6.61,0,0,1-2.19,3.76,5.64,5.64,0,0,1-3.79,1.55,3.76,3.76,0,0,1-3.19-1.55,4.56,4.56,0,0,1-.72-3.76,6.64,6.64,0,0,1,2.18-3.76,5.6,5.6,0,0,1,3.79-1.57A3.75,3.75,0,0,1,190.14,60.13Zm-5.89,1.49a4,4,0,0,0-1.31,2.26,2.74,2.74,0,0,0,.44,2.25,2.24,2.24,0,0,0,1.91.93,3.35,3.35,0,0,0,2.27-.93,3.93,3.93,0,0,0,1.32-2.25,2.77,2.77,0,0,0-.44-2.26,2.25,2.25,0,0,0-1.91-.93A3.36,3.36,0,0,0,184.25,61.62Z"/><path class="cls-4" d="M195.44,58.65,193.81,67h3.92l-.41,2.09h-5.87l2-10.47Z"/><path class="cls-4" d="M202.83,66l1.43-7.33h3.42a2.6,2.6,0,0,1,2.21,1.07,3.17,3.17,0,0,1,.5,2.6,4.46,4.46,0,0,1-1.51,2.59A3.93,3.93,0,0,1,206.25,66h-1.46l-.61,3.14h-2Zm4.44-5.25h-1.46c-.2,1.06-.41,2.11-.61,3.16h1.46a2,2,0,0,0,1.77-1.58A1.24,1.24,0,0,0,207.27,60.73Z"/><path class="cls-4" d="M213.91,58.43l2.36,10.69h-2.12l-.35-1.59h-3.33l-1,1.59h-2.12Zm-.52,7.24-.46-2.21-1.32,2.21Z"/><path class="cls-4" d="M224.6,64.44l1.13-5.82h2l-2.08,10.72-4.71-6-1.13,5.82h-2l2.08-10.71Z"/><path class="cls-4" d="M235.45,58.62l-.4,2.1h-3.92l-.41,2.11h2.93l-.4,2.1h-2.94L229.9,67h3.92l-.41,2.1h-5.87l2-10.52Z"/><path class="cls-4" d="M238.76,58.65,237.13,67h3.92l-.41,2.09h-5.88l2-10.47Z"/></g></svg>