<svg xmlns="http://www.w3.org/2000/svg" viewBox="0 0 1100 1080"><defs><style>.cls-1{fill:#201d28;}.cls-2{fill:#1a1921;}.cls-3{fill:#362c3d;}</style></defs><title>Artboard 9</title><g id="Layer_11" data-name="Layer 11"><polygon class="cls-1" points="1100 1080 0 1080 0 47.87 47.87 0 1052.13 0 1100 47.87 1100 1080"/><path class="cls-2" d="M1053.64,56.4l5-2c.36-1.45-3.81-3-3.81-4.53a18.77,18.77,0,0,0-18.76-18.77c-2.47,0,1.42-1.78-.8-1.08-5.28,1.67-12.63,6.24-14.72,9.29Z"/><path class="cls-2" d="M1018.49,43.33a18.76,18.76,0,0,0,33.09,17.09l-28.09-19.09Z"/><path class="cls-3" d="M1058.64,54.4a18.76,18.76,0,0,0-33.09-17.09Z"/><path class="cls-3" d="M1023.49,41.33a18.76,18.76,0,0,0,33.09,17.09Z"/><path class="cls-2" d="M43.49,56.4l-5-2c-.36-1.45,3.81-3,3.81-4.53A18.77,18.77,0,0,1,61.07,31.1c2.46,0-1.43-1.78.79-1.08,5.28,1.67,12.63,6.24,14.72,9.29Z"/><path class="cls-2" d="M78.64,43.33A18.76,18.76,0,0,1,45.55,60.42L73.64,41.33Z"/><path class="cls-3" d="M38.49,54.4A18.76,18.76,0,0,1,71.58,37.31Z"/><path class="cls-3" d="M73.64,41.33A18.76,18.76,0,0,1,40.55,58.42Z"/></g></svg>