<svg xmlns="http://www.w3.org/2000/svg" viewBox="0 0 1081.58 91.78"><defs><style>.cls-1,.cls-2{fill:none;stroke-width:2px;}.cls-1{stroke:#362c3d;stroke-linejoin:bevel;}.cls-2{stroke:#ffedc0;stroke-miterlimit:10;}</style></defs><title>Artboard 7</title><g id="Layer_10" data-name="Layer 10"><circle class="cls-1" cx="1067.69" cy="27.93" r="3.03"/><circle class="cls-1" cx="1037.63" cy="6.42" r="3.03"/><polyline class="cls-1" points="1040.52 38.93 1051.51 27.93 1064.66 27.93"/><polyline class="cls-1" points="1046.51 32.94 1037.63 24.06 1037.63 9.44"/><circle class="cls-1" cx="1056.91" cy="39.74" r="3.03"/><circle class="cls-1" cx="1074.68" cy="79.61" r="3.03"/><polyline class="cls-1" points="1059.05 41.98 1074.68 57.61 1074.68 76.58"/><circle class="cls-1" cx="13.89" cy="27.93" r="3.03"/><circle class="cls-1" cx="43.95" cy="6.42" r="3.03"/><polyline class="cls-1" points="41.07 38.93 30.07 27.93 16.92 27.93"/><polyline class="cls-1" points="35.08 32.94 43.95 24.06 43.95 9.44"/><circle class="cls-1" cx="24.67" cy="39.74" r="3.03"/><circle class="cls-1" cx="6.9" cy="79.61" r="3.03"/><polyline class="cls-1" points="22.53 41.98 6.91 57.61 6.91 76.58"/><polyline class="cls-2" points="21.98 88.39 21.98 58.02 21.98 58.02 59.23 20.77 540.79 20.77 1022.35 20.77 1059.6 58.02 1059.6 58.02 1059.6 88.39"/></g></svg>